<svg xmlns="http://www.w3.org/2000/svg" viewBox="0 0 512 512">
  <defs>
    <linearGradient id="g" x1="0" y1="0" x2="1" y2="1">
      <stop offset="0%" stop-color="#f3b33d"/>
      <stop offset="100%" stop-color="#5aa7ff"/>
    </linearGradient>
  </defs>
  <rect width="512" height="512" rx="120" fill="#090b10"/>
  <rect x="40" y="40" width="432" height="432" rx="100" fill="url(#g)" opacity="0.18"/>
  <circle cx="256" cy="256" r="150" fill="none" stroke="url(#g)" stroke-width="24"/>
  <path d="M192 170h48v172c0 16-5 29-16 39-10 10-23 15-39 15-18 0-32-6-43-17-11-11-16-25-16-43 0-16 5-29 16-39 11-11 25-16 43-16 7 0 13 1 19 3V170zm128 0h66c0 83-67 150-150 150v-48c56 0 102-46 102-102z" fill="#eef2ff"/>
</svg>
